<svg width="34" height="24" viewBox="0 0 34 24" fill="none" xmlns="http://www.w3.org/2000/svg">
<path d="M32 1H2C1.44772 1 1 1.44772 1 2V22C1 22.5523 1.44772 23 2 23H32C32.5523 23 33 22.5523 33 22V2C33 1.44772 32.5523 1 32 1Z" fill="white"/>
<path d="M32.5 0.5H1.5C0.947715 0.5 0.5 0.947715 0.5 1.5V22.5C0.5 23.0523 0.947715 23.5 1.5 23.5H32.5C33.0523 23.5 33.5 23.0523 33.5 22.5V1.5C33.5 0.947715 33.0523 0.5 32.5 0.5Z" stroke="#E0E0E0"/>
<path d="M14.3761 15.8537H12.4453L13.6529 8.23535H15.5836L14.3761 15.8537Z" fill="#00579F"/>
<path d="M21.3752 8.42151C20.9944 8.26736 20.3903 8.09717 19.6435 8.09717C17.7368 8.09717 16.3941 9.13451 16.3859 10.6176C16.3701 11.7118 17.3472 12.3196 18.078 12.6844C18.825 13.0572 19.0789 13.3006 19.0789 13.6329C19.0713 14.1432 18.4753 14.3785 17.9195 14.3785C17.1486 14.3785 16.7356 14.2572 16.1079 13.9733L15.8537 13.8515L15.5835 15.5617C16.0363 15.7722 16.8706 15.959 17.7368 15.9672C19.7627 15.9672 21.0816 14.9459 21.0972 13.3654C21.1049 12.4982 20.5889 11.8336 19.4765 11.2906C18.8013 10.942 18.3877 10.707 18.3877 10.3503C18.3956 10.0261 18.7375 9.694 19.4998 9.694C20.1274 9.67774 20.5886 9.83167 20.938 9.98571L21.1126 10.0666L21.3752 8.42151Z" fill="#00579F"/>
<path d="M23.9413 13.1548C24.1003 12.7171 24.7121 11.0232 24.7121 11.0232C24.7041 11.0395 24.8708 10.5775 24.9661 10.2939L25.1011 10.9503C25.1011 10.9503 25.4667 12.7739 25.5461 13.1548C25.2443 13.1548 24.3226 13.1548 23.9413 13.1548ZM26.3245 8.23535H24.8311C24.3706 8.23535 24.0207 8.37302 23.822 8.86745L20.9541 15.8536H22.98C22.98 15.8536 23.3135 14.9133 23.3852 14.7108C23.6074 14.7108 25.5782 14.7108 25.8641 14.7108C25.9195 14.9783 26.0945 15.8536 26.0945 15.8536H27.8822L26.3245 8.23535Z" fill="#00579F"/>
<path d="M10.8328 8.23535L8.94192 13.4303L8.7353 12.3767C8.38572 11.161 7.28938 9.84016 6.06592 9.18339L7.79785 15.8456H9.83956L12.8744 8.23535H10.8328Z" fill="#00579F"/>
<path d="M7.18601 8.23535H4.07963L4.04785 8.38928C6.47102 9.02149 8.07584 10.5454 8.73518 12.3771L8.05989 8.87574C7.94872 8.38917 7.60706 8.2514 7.18601 8.23535Z" fill="#FAA61A"/>
</svg>
