<svg width="34" height="24" viewBox="0 0 34 24" fill="none" xmlns="http://www.w3.org/2000/svg">
<g clip-path="url(#clip0_277_262)">
<path d="M32 1H2C1.44772 1 1 1.44772 1 2V22C1 22.5523 1.44772 23 2 23H32C32.5523 23 33 22.5523 33 22V2C33 1.44772 32.5523 1 32 1Z" fill="white"/>
<path d="M32.5 0.5H1.5C0.947715 0.5 0.5 0.947715 0.5 1.5V22.5C0.5 23.0523 0.947715 23.5 1.5 23.5H32.5C33.0523 23.5 33.5 23.0523 33.5 22.5V1.5C33.5 0.947715 33.0523 0.5 32.5 0.5Z" stroke="#E0E0E0"/>
<path d="M20.7255 6.78418H14.1611V17.1952H20.7255V6.78418Z" fill="#FF5F00"/>
<path d="M14.8372 11.991C14.8355 9.9597 15.7958 8.04051 17.4414 6.78637C14.6459 4.65305 10.6314 4.96378 8.21927 7.5002C5.80712 10.0366 5.80712 13.9472 8.21927 16.4836C10.6314 19.02 14.6459 19.3307 17.4414 17.1974C15.7953 15.9429 14.835 14.0229 14.8372 11.991Z" fill="#EB001B"/>
<path d="M27.8221 16.0939V15.8806H27.9168V15.8364H27.6914V15.8806H27.7804V16.0939H27.8221ZM28.2596 16.0939V15.8364H28.1914L28.1119 16.0203L28.0323 15.8364H27.9641V16.0939H28.0134V15.899L28.0872 16.0663H28.1384L28.2122 15.899V16.0939H28.2596Z" fill="#F79E1B"/>
<path d="M28.4736 11.9906C28.4735 14.5255 26.983 16.8378 24.6349 17.9455C22.2869 19.0532 19.4936 18.7619 17.4414 17.1952C19.0862 15.94 20.0466 14.021 20.0466 11.9897C20.0466 9.9583 19.0862 8.03936 17.4414 6.78416C19.4936 5.21746 22.2869 4.92611 24.6349 6.03383C26.983 7.14155 28.4735 9.45388 28.4736 11.9888V11.9906Z" fill="#F79E1B"/>
</g>
<defs>
<clipPath id="clip0_277_262">
<rect width="34" height="24" fill="white"/>
</clipPath>
</defs>
</svg>
