<svg width="45" height="36" viewBox="0 0 45 36" fill="none" xmlns="http://www.w3.org/2000/svg">
<path d="M0.000139905 29.5528C-0.00579911 30.4029 0.177402 31.2455 0.539202 32.0324C0.901002 32.8192 1.43426 33.5347 2.10828 34.1376C2.78231 34.7405 3.5838 35.219 4.46663 35.5455C5.34946 35.872 6.29621 36.0401 7.25239 36.0401H14.9101V28.792H0.000139905V29.5528Z" fill="#C9C9C9"/>
<path d="M14.9099 19.1406H0V26.5088H14.9099V19.1406Z" fill="#C9C9C9"/>
<path d="M0 6.44716V7.20801H14.9099V0H7.25225C5.32884 0 3.4842 0.679253 2.12414 1.88833C0.764075 3.09741 0 4.73727 0 6.44716H0Z" fill="#C9C9C9"/>
<path d="M37.7473 0.000124374H17.4771V36.0402H27.7924V7.20813H45.0446V6.44729C45.0446 5.59726 44.8556 4.75561 44.4883 3.97078C44.121 3.18595 43.5828 2.47344 42.9046 1.87424C42.2264 1.27504 41.4216 0.80098 40.5365 0.479344C39.6514 0.157709 38.7035 -0.00515534 37.7473 0.000124374Z" fill="#C9C9C9"/>
<path d="M14.9099 9.49072H0V16.8589H14.9099V9.49072Z" fill="#C9C9C9"/>
<path d="M45 9.49072H30.3604V16.8589H45V9.49072Z" fill="#C9C9C9"/>
<path d="M45 19.1406H30.3604V26.5088H45V19.1406Z" fill="#C9C9C9"/>
<path d="M30.3604 36.04H37.7477C38.7077 36.0454 39.6593 35.8812 40.5474 35.5571C41.4354 35.2329 42.2422 34.7553 42.921 34.1518C43.5998 33.5484 44.1371 32.8311 44.5017 32.0417C44.8663 31.2522 45.051 30.4062 45.045 29.5528V28.792H30.3604V36.04Z" fill="#C9C9C9"/>
</svg>
