<svg width="20" height="21" viewBox="0 0 20 21" fill="none" xmlns="http://www.w3.org/2000/svg">
<g clip-path="url(#clip0_6001_2225)">
<path d="M13.75 1.75H6.25C5.55937 1.75 5 2.30937 5 3V18C5 18.6906 5.55937 19.25 6.25 19.25H13.75C14.4406 19.25 15 18.6906 15 18V3C15 2.30937 14.4406 1.75 13.75 1.75ZM10 18C9.655 18 9.375 17.72 9.375 17.375C9.375 17.03 9.655 16.75 10 16.75C10.345 16.75 10.625 17.03 10.625 17.375C10.625 17.72 10.345 18 10 18ZM13.75 16.125H6.25V3.625H13.75V16.125Z" fill="#999999"/>
</g>
<defs>
<clipPath id="clip0_6001_2225">
<rect width="20" height="20" fill="white" transform="translate(0 0.5)"/>
</clipPath>
</defs>
</svg>
