<svg width="81" height="80" viewBox="0 0 81 80" fill="none" xmlns="http://www.w3.org/2000/svg">
<path d="M1.90527 34.2585H77.7572L75.5263 41.695H5.25168L1.90527 34.2585Z" fill="#DADADA"/>
<path d="M77.0994 35.9652H2.42188C2.42188 35.9652 3.4765 41.5698 8 47.5346H71.4218C75.8941 41.5698 77.0994 35.9652 77.0994 35.9652Z" fill="#E7E7E7"/>
<path d="M33.0051 60.1026C35.3127 60.4047 38.1688 60.569 40.8285 60.569C43.5113 60.569 45.6254 60.379 47.9406 60.0317M33.0051 60.1026C6.49994 56.632 2.42285 34.9652 2.42285 34.9652H77.1004C77.1004 34.9652 72.502 56.3478 47.9406 60.0317M33.0051 60.1026C33.3607 62.8658 34.143 68.9613 34.4275 71.2372C34.712 73.5131 36.5612 73.7264 37.2724 73.7264H40.8285H44.3845C45.0957 73.7264 46.5182 73.3708 46.8738 71.2372C47.1583 69.5303 47.7035 63.0556 47.9406 60.0317" stroke="#151716" stroke-width="2"/>
<path d="M27.1895 16.545C27.1895 8.66706 31.1769 6 35.2469 6C39.3169 6 42.5589 9.20047 42.5589 16.545C42.5589 25.1732 42.5589 26.5906 42.5589 33.6886" stroke="#151716" stroke-width="4" stroke-linecap="round"/>
<rect x="1" y="32.8317" width="78.2337" height="8.53458" rx="2" fill="white" stroke="#151716" stroke-width="2"/>
</svg>
