<svg width="17" height="17" viewBox="0 0 17 17" fill="none" xmlns="http://www.w3.org/2000/svg">
<path d="M8.44358 6.81683V10.1832C8.44358 10.1832 11.6876 10.1788 13.0085 10.1788C12.2932 12.3611 11.181 13.5495 8.44358 13.5495C5.67333 13.5495 3.51119 11.2888 3.51119 8.5C3.51119 5.71124 5.67333 3.4505 8.44358 3.4505C9.90825 3.4505 10.8542 3.96874 11.7219 4.69107C12.4164 3.99189 12.3584 3.89224 14.1254 2.21236C12.6254 0.837881 10.6317 0 8.44358 0C3.7803 0 0 3.80556 0 8.5C0 13.1944 3.7803 17 8.44358 17C15.4139 17 17.1176 10.8901 16.5528 6.81683H8.44358Z" fill="#4185F4"/>
</svg>
