<svg width="81" height="80" viewBox="0 0 81 80" fill="none" xmlns="http://www.w3.org/2000/svg">
<path d="M3.02435 26.1034L26.4077 3.02435C21.0841 5.03056 16.2494 8.12328 12.22 12.1003C8.19053 16.0773 5.05701 20.849 3.02435 26.1034Z" fill="#FF7028"/>
<path d="M40.3689 0C38.462 0.00283901 36.5575 0.136637 34.6694 0.400424L0.408164 34.2181C0.137431 36.0805 0.00103284 37.9595 0 39.841C0 40.2075 0.0172117 40.5691 0.027047 40.9355L41.4778 0.026695C41.109 0.0169877 40.7402 0 40.3689 0Z" fill="#FF7028"/>
<path d="M52.904 2.24094C51.2078 1.71615 49.4778 1.30429 47.7257 1.00812L1.00812 47.1176C1.30847 48.8468 1.72576 50.5543 2.2572 52.2285L52.904 2.24094Z" fill="#FF7028"/>
<path d="M61.7238 6.2166C60.3673 5.4071 58.9633 4.67777 57.5192 4.03247L4.03247 56.8157C4.68526 58.2407 5.42424 59.6257 6.24541 60.9631L61.7238 6.2166Z" fill="#FF7028"/>
<path d="M68.129 11.0183C67.0392 9.97027 65.8899 8.98421 64.6866 8.06491L8.06494 63.9593C8.99783 65.1464 9.99769 66.2807 11.0598 67.3568L68.129 11.0183Z" fill="#FF7028"/>
<path d="M74.6252 18.8008C73.7938 17.5256 72.8909 16.2973 71.9205 15.1217L15.1217 71.1812C16.3126 72.1403 17.558 73.0315 18.8517 73.8506L74.6252 18.8008Z" fill="#FF7028"/>
<path d="M79.0363 26.6681C78.5051 25.1349 77.8786 23.6355 77.1602 22.1785L23.1866 75.4495C24.6644 76.1571 26.1843 76.7755 27.7379 77.3012L79.0363 26.6681Z" fill="#FF7028"/>
<path d="M80.6272 37.8802C80.5177 35.9917 80.2712 34.1134 79.8895 32.2597L32.2597 79.272C34.1362 79.6483 36.0377 79.8916 37.9494 80L80.6272 37.8802Z" fill="#FF7028"/>
<path d="M78.6379 52.3777C79.4833 49.7692 80.0527 47.0813 80.337 44.3571L44.3571 79.8687C47.1174 79.589 49.8408 79.027 52.4835 78.1917L78.6379 52.3777Z" fill="#FF7028"/>
</svg>
