<svg width="12" height="20" viewBox="0 0 12 20" fill="none" xmlns="http://www.w3.org/2000/svg">
<path fill-rule="evenodd" clip-rule="evenodd" d="M5.9601 10.1149C3.19631 10.1061 0.930022 7.966 0.946138 5.38035C0.962045 2.76615 3.2298 0.659472 6.0208 0.666706C8.81745 0.673743 11.0622 2.81073 11.0482 5.45209C11.0339 8.03246 8.75194 10.1239 5.9601 10.1149ZM8.47187 5.38663C8.46706 4.10279 7.37242 3.08073 6.00068 3.07956C4.61742 3.07819 3.51295 4.11883 3.52363 5.41439C3.53388 6.69333 4.63793 7.70816 6.01344 7.70347C7.38477 7.69897 8.47647 6.67026 8.47187 5.38663ZM0.874309 12.4337C2.07024 13.3074 3.4671 13.6638 5.01633 13.8147C4.97425 13.8567 4.93798 13.8937 4.905 13.9273C4.85221 13.9811 4.80787 14.0263 4.76162 14.0698C4.54092 14.2765 4.32024 14.4832 4.09954 14.6899C3.18419 15.5473 2.26866 16.4049 1.35109 17.2607C1.11563 17.4803 0.946936 17.725 0.930192 18.0455C0.905913 18.5191 1.22049 18.9905 1.71485 19.2143C2.17992 19.4253 2.65712 19.3588 3.05813 18.9895C3.95121 18.1671 4.83906 17.3399 5.71267 16.4999C5.93118 16.2899 6.05027 16.2441 6.29787 16.486C6.86986 17.0451 7.45717 17.5904 8.04455 18.1358C8.33086 18.4016 8.61719 18.6675 8.90176 18.935C9.12843 19.1483 9.38356 19.3004 9.7107 19.3215C10.227 19.3545 10.7536 19.0458 10.9889 18.5766C11.204 18.1473 11.1224 17.6897 10.7317 17.3206C10.0026 16.632 9.26996 15.9466 8.53733 15.2611C8.1174 14.8683 7.69748 14.4754 7.27823 14.0819C7.2186 14.026 7.16991 13.9762 7.09596 13.9005C7.07076 13.8748 7.04262 13.846 7.01012 13.8129C7.85757 13.7183 8.71381 13.5758 9.49554 13.2927C10.3223 12.9932 11.0663 12.5641 11.685 11.971C12.0883 11.5841 12.0925 11.0977 11.7652 10.5993C11.4786 10.163 10.9807 9.97982 10.4468 10.1079C10.1722 10.1739 9.93528 10.3034 9.71363 10.4621C7.47643 11.8677 4.4146 11.8282 2.18578 10.3978C2.07652 10.327 1.96245 10.2611 1.84274 10.2084C1.22447 9.93603 0.629639 10.0629 0.275296 10.5372C-0.138907 11.0914 -0.0861634 11.6292 0.437293 12.0988C0.545566 12.1959 0.665212 12.2823 0.784677 12.3686C0.814627 12.3903 0.844565 12.4119 0.874309 12.4337Z" fill="#F69336"/>
</svg>
