<svg width="20" height="20" viewBox="0 0 20 20" fill="none" xmlns="http://www.w3.org/2000/svg">
<path d="M19.5411 4.8182C19.6801 4.34656 19.5411 4 18.8794 4H16.6914C16.135 4 15.8786 4.29938 15.7395 4.62951C15.7395 4.62951 14.6268 7.38857 13.0505 9.18076C12.5406 9.69954 12.3087 9.86461 12.0306 9.86461C11.8915 9.86461 11.6829 9.69954 11.6829 9.22794V4.8182C11.6829 4.25224 11.5287 4 11.0651 4H7.62678C7.27911 4 7.07003 4.26268 7.07003 4.51163C7.07003 5.04816 7.85812 5.17188 7.93935 6.68113V9.95898C7.93935 10.6776 7.81177 10.8079 7.5336 10.8079C6.79186 10.8079 4.98756 8.03654 3.91744 4.86535C3.70773 4.24898 3.49738 4 2.93819 4H0.750182C0.125037 4 0 4.29938 0 4.62951C0 5.21907 0.741785 8.14319 3.45387 12.0106C5.26191 14.6517 7.80932 16.0833 10.1274 16.0833C11.5182 16.0833 11.6902 15.7654 11.6902 15.2176V13.2215C11.6902 12.5855 11.822 12.4586 12.2624 12.4586C12.5869 12.4586 13.1433 12.6237 14.4414 13.8971C15.9249 15.4063 16.1695 16.0833 17.004 16.0833H19.192C19.8171 16.0833 20.1297 15.7654 19.9494 15.1378C19.752 14.5124 19.0437 13.605 18.1039 12.5293C17.5939 11.9162 16.8289 11.256 16.5971 10.9258C16.2726 10.5014 16.3653 10.3127 16.5971 9.93538C16.5971 9.93538 19.2629 6.11516 19.5411 4.8182Z" fill="#5A7FA5"/>
</svg>
