<svg width="48" height="42" viewBox="0 0 48 42" fill="none" xmlns="http://www.w3.org/2000/svg">
<g clip-path="url(#clip0_228_2309)">
<path d="M26.7922 27.476H22.7886V30.7807H20.506V27.476H18.0322V25.5773H20.506V23.931H18.0322V22.0443H20.506V13.2839H26.9236C28.788 13.2839 30.2659 13.7606 31.3574 14.7139C32.449 15.6673 32.9947 16.9571 32.9947 18.5834C32.9947 20.2898 32.4689 21.6077 31.4172 22.537C30.3735 23.4583 28.8876 23.923 26.9595 23.931H22.7886V25.5773H26.7922V27.476ZM22.7886 22.0443H26.9236C28.1586 22.0443 29.0987 21.7519 29.7441 21.1671C30.3894 20.5823 30.7121 19.729 30.7121 18.6075C30.7121 17.59 30.3775 16.7688 29.7082 16.144C29.039 15.5111 28.1347 15.1906 26.9954 15.1826H22.7886V22.0443Z" fill="#FB6900"/>
<path d="M43.9255 21.1731C43.9255 9.98248 34.9037 0.910675 23.7746 0.910675C15.5257 0.910675 8.43452 5.89453 5.31659 13.031" stroke="#FB6900" stroke-width="2" stroke-linecap="round"/>
<path d="M40.2076 19.4172L43.8708 22.3267L46.9928 18.887" stroke="#FB6900" stroke-width="2" stroke-linecap="round"/>
<path d="M3.62168 20.7178C3.62168 31.9084 12.6436 40.9803 23.7726 40.9803C32.0215 40.9803 39.1127 35.9964 42.2307 28.8599" stroke="#FB6900" stroke-width="2" stroke-linecap="round"/>
<path d="M6.92596 22.6088L3.67848 19.5643L0.918882 22.8739" stroke="#FB6900" stroke-width="2" stroke-linecap="round"/>
</g>
<defs>
<clipPath id="clip0_228_2309">
<rect width="48" height="41.8909" fill="white"/>
</clipPath>
</defs>
</svg>
